<svg xmlns="http://www.w3.org/2000/svg" width="23.969" height="26.171" viewBox="0 0 23.969 26.171">
  <g id="Group_2042" data-name="Group 2042" transform="translate(-283.475 -420.945)">
    <path id="Path_6" data-name="Path 6" d="M283.475,442.177v-.214a.513.513,0,0,0,.024-.075,1.23,1.23,0,0,1,.833-1,2.412,2.412,0,0,0,.791-.481,2.686,2.686,0,0,0,.886-2.1c-.012-2.162,0-4.325,0-6.487a9.211,9.211,0,0,1,5.552-8.542,8.427,8.427,0,0,1,2-.6c.012-.124.016-.243.035-.361a1.511,1.511,0,0,1,1.041-1.27,1.572,1.572,0,0,1,2.09,1.489c0,.1.015.154.131.165a2.7,2.7,0,0,1,.391.079,9.166,9.166,0,0,1,7.048,8.881c.022,2.224,0,4.449.007,6.674a2.481,2.481,0,0,0,1.133,2.132,1.626,1.626,0,0,0,.811.346,1.261,1.261,0,0,1-.126,2.518q-10.658,0-21.317,0h-.08a1.26,1.26,0,0,1-1.184-.892C283.512,442.349,283.5,442.262,283.475,442.177Z" fill="#676767"/>
    <path id="Path_7" data-name="Path 7" d="M385.261,712.616c-.248-.044-.5-.073-.744-.136a4.374,4.374,0,0,1-2.858-2.279.779.779,0,0,1-.034-.094h7.931a.961.961,0,0,1-.039.1,4.387,4.387,0,0,1-3.394,2.382l-.194.03Z" transform="translate(-90.119 -265.5)" fill="#676767"/>
  </g>
</svg>
