<svg height="512" viewBox="0 0 32 32" width="512" xmlns="http://www.w3.org/2000/svg"><g id="Layer_2" data-name="Layer 2"><path d="m16 23.58a18.89 18.89 0 0 0 13.37-5.53 2.92 2.92 0 0 0 0-4.1 18.93 18.93 0 0 0 -26.74.05 2.92 2.92 0 0 0 0 4.1 18.89 18.89 0 0 0 13.37 5.48zm0-12.58a5 5 0 1 1 -5 5 5 5 0 0 1 5-5zm12.21 5a.88.88 0 0 1 -.26.63 16.74 16.74 0 0 1 -6.85 4.15 7 7 0 0 0 0-9.56 16.74 16.74 0 0 1 6.9 4.15.88.88 0 0 1 .21.63zm-24.16-.63a16.74 16.74 0 0 1 6.85-4.15 7 7 0 0 0 0 9.56 16.74 16.74 0 0 1 -6.85-4.15.89.89 0 0 1 0-1.26z"/></g></svg>