<svg xmlns="http://www.w3.org/2000/svg" width="29.567" height="36.508" viewBox="0 0 29.567 36.508">
  <g id="Group_2667" data-name="Group 2667" transform="translate(-40 -537)">
    <g id="Ellipse_415" data-name="Ellipse 415" transform="translate(47 537)" fill="none" stroke="#000" stroke-width="1.5">
      <circle cx="8" cy="8" r="8" stroke="none"/>
      <circle cx="8" cy="8" r="7.25" fill="none"/>
    </g>
    <g id="Path_1425" data-name="Path 1425" transform="translate(40 556.926)" fill="none">
      <path d="M14.784,0c8.165,0,14.784,5.3,14.784,11.827s-6.619,4.435-14.784,4.435S0,18.359,0,11.827,6.619,0,14.784,0Z" stroke="none"/>
      <path d="M 14.78369140625 1.5 C 11.17413139343262 1.5 7.794401168823242 2.613479614257813 5.267082214355469 4.635339736938477 C 2.837841033935547 6.578729629516602 1.500001907348633 9.132759094238281 1.500001907348633 11.82695007324219 C 1.500001907348633 13.56800937652588 2.036802291870117 14.13372993469238 2.504451751708984 14.4320592880249 C 3.418481826782227 15.01515007019043 5.062082290649414 15.0825891494751 6.218860626220703 15.0825891494751 C 7.30116081237793 15.0825891494751 8.528501510620117 15.01397895812988 9.827911376953125 14.94133949279785 C 11.33116149902344 14.85730934143066 13.03497123718262 14.76205921173096 14.78369140625 14.76205921173096 C 16.53271102905273 14.76205921173096 18.2364501953125 14.85730934143066 19.7396411895752 14.94133949279785 C 21.03892135620117 15.01397895812988 22.26615142822266 15.0825891494751 23.3485221862793 15.0825891494751 C 25.18662071228027 15.0825891494751 26.3668212890625 14.87582969665527 27.06269073486328 14.43190956115723 C 27.53046035766602 14.13350963592529 28.06738090515137 13.5677490234375 28.06738090515137 11.82695007324219 C 28.06738090515137 9.132759094238281 26.72954177856445 6.578729629516602 24.30030059814453 4.635339736938477 C 21.77298164367676 2.613479614257813 18.39325141906738 1.5 14.78369140625 1.5 M 14.78369140625 0 C 22.94850158691406 0 29.56738090515137 5.295109748840332 29.56738090515137 11.82695007324219 C 29.56738090515137 15.80490303039551 27.11244201660156 16.58259201049805 23.34852600097656 16.58259201049805 C 20.93204498291016 16.58259201049805 17.97605895996094 16.26206016540527 14.78369140625 16.26206016540527 C 11.59182167053223 16.26206016540527 8.635128021240234 16.58259201049805 6.218856811523438 16.58259201049805 C 2.454301834106445 16.58259201049805 1.9073486328125e-06 15.80530166625977 1.9073486328125e-06 11.82695007324219 C 1.9073486328125e-06 5.295109748840332 6.618881225585938 0 14.78369140625 0 Z" stroke="none"/>
    </g>
  </g>
</svg>
