<svg xmlns="http://www.w3.org/2000/svg" width="23.076" height="29.818" viewBox="0 0 23.076 29.818">
  <g id="Group_2663" data-name="Group 2663" transform="translate(-42.527 -539.676)">
    <path id="Path_358" data-name="Path 358" d="M2117.563,588.311V567.087h-21.576V595.4h13.9Z" transform="translate(-2052.709 -26.66)" fill="none" stroke="#000" stroke-linecap="round" stroke-linejoin="round" stroke-width="1.5"/>
    <g id="Group_1433" data-name="Group 1433" transform="translate(47.47 543.133)">
      <path id="Path_357" data-name="Path 357" d="M2107.015,575.7a1.886,1.886,0,0,0-1.932-1.973c-1.973,0-2.177,2.178-2.177,2.178a2.09,2.09,0,0,0,2.055,2.425,2.675,2.675,0,0,1,2.466,2.589,2.64,2.64,0,0,1-2.26,2.3,3.175,3.175,0,0,1-2.589-2.384" transform="translate(-2102.576 -572.209)" fill="none" stroke="#000" stroke-linecap="round" stroke-linejoin="round" stroke-width="1.5"/>
      <line id="Line_187" data-name="Line 187" y1="1.521" transform="translate(2.507)" fill="none" stroke="#000" stroke-linecap="round" stroke-linejoin="round" stroke-width="1.5"/>
      <line id="Line_188" data-name="Line 188" y1="1.521" transform="translate(2.507 11.015)" fill="none" stroke="#000" stroke-linecap="round" stroke-linejoin="round" stroke-width="1.5"/>
    </g>
    <path id="Path_359" data-name="Path 359" d="M2117.822,607.432v-7.27h7.681" transform="translate(-2060.649 -38.687)" fill="none" stroke="#000" stroke-linecap="round" stroke-linejoin="round" stroke-width="1.5"/>
    <line id="Line_189" data-name="Line 189" x2="15.27" transform="translate(46.326 558.453)" fill="none" stroke="#000" stroke-linecap="round" stroke-linejoin="round" stroke-width="1.5"/>
    <line id="Line_190" data-name="Line 190" x2="5.634" transform="translate(46.326 562.894)" fill="none" stroke="#000" stroke-linecap="round" stroke-linejoin="round" stroke-width="1.5"/>
    <line id="Line_191" data-name="Line 191" x2="5.719" transform="translate(55.877 554.011)" fill="none" stroke="#000" stroke-linecap="round" stroke-linejoin="round" stroke-width="1.5"/>
    <line id="Line_192" data-name="Line 192" x2="5.719" transform="translate(55.877 549.57)" fill="none" stroke="#000" stroke-linecap="round" stroke-linejoin="round" stroke-width="1.5"/>
    <line id="Line_193" data-name="Line 193" x2="5.719" transform="translate(55.877 545.129)" fill="none" stroke="#000" stroke-linecap="round" stroke-linejoin="round" stroke-width="1.5"/>
  </g>
</svg>
