<svg xmlns="http://www.w3.org/2000/svg" width="30.512" height="30.544" viewBox="0 0 30.512 30.544">
  <g id="Group_2664" data-name="Group 2664" transform="translate(-39.529 -660.011)">
    <g id="Group_2646" data-name="Group 2646" transform="translate(40.279 660.763)">
      <path id="Path_427" data-name="Path 427" d="M1354.268,589.923l10.4,9.511a3.119,3.119,0,0,1-.4,3.765,3.048,3.048,0,0,1-3.666.5l-9.821-10.712" transform="translate(-1336.237 -575.164)" fill="none"/>
      <path id="Path_266" data-name="Path 266" d="M1333.6,583.714a5.559,5.559,0,0,0-4.709.766,5,5,0,0,0-2.026,6l2.5-2.5h1.716l.693.694.237.237.694.694v1.716l-2.5,2.5a5,5,0,0,0,6-2.026,5.559,5.559,0,0,0,.767-4.709l11.445-11.445a5.56,5.56,0,0,0,4.709-.766,5,5,0,0,0,2.026-6l-2.5,2.5h-1.716l-.694-.694-.238-.238-.694-.694v-1.716l2.5-2.5a5,5,0,0,0-6.005,2.026,5.56,5.56,0,0,0-.766,4.709Z" transform="translate(-1326.476 -565.217)" fill="none" stroke="#161615" stroke-linecap="round" stroke-linejoin="round" stroke-width="1.5"/>
      <path id="Path_267" data-name="Path 267" d="M1339.706,577.069l-7.381-7.381-.1-1.882-4.21-2.427-1.585,1.585,2.427,4.012,1.932.149,7.43,7.43" transform="translate(-1326.43 -565.282)" fill="none" stroke="#161615" stroke-linecap="round" stroke-linejoin="round" stroke-width="1.5"/>
      <path id="Path_268" data-name="Path 268" d="M1354.268,589.923l10.4,9.511a3.119,3.119,0,0,1-.4,3.765,3.048,3.048,0,0,1-3.666.5l-9.821-10.712" transform="translate(-1336.237 -575.164)" fill="none" stroke="#161615" stroke-linecap="round" stroke-linejoin="round" stroke-width="1.5"/>
    </g>
  </g>
</svg>
