<svg xmlns="http://www.w3.org/2000/svg" width="40.14" height="12.81" viewBox="0 0 40.14 12.81">
  <path id="Path_1322" data-name="Path 1322" d="M493.239,210.571c-5.978-.008-11.109-2.816-14.749-5.576a35.139,35.139,0,0,1-5.851-5.548,1.036,1.036,0,0,1,.81-1.68l5.1-.006a1.026,1.026,0,0,1,.819.4c4.893,6.273,9.862,8.213,14.431,8.231a21.553,21.553,0,0,0,11.346-3.751,32.2,32.2,0,0,0,5.533-4.462,1.085,1.085,0,0,0,.074-.084,1.037,1.037,0,0,1,1.581,1.34c-6.411,8.208-13.079,11.131-19.057,11.131Z" transform="translate(-472.414 -197.761)" fill="#fff"/>
</svg>
